<svg width="32" height="32" viewBox="0 0 32 32" fill="none" xmlns="http://www.w3.org/2000/svg">
<g clip-path="url(#clip0_14_50)">
<path d="M30.18 25.58C30.4341 25.3821 30.6367 25.1258 30.7705 24.8328C30.9043 24.5398 30.9654 24.2188 30.9485 23.8971C30.9316 23.5755 30.8372 23.2627 30.6735 22.9853C30.5098 22.7079 30.2815 22.4742 30.008 22.304L30 10.66L28 12V22.3C27.7297 22.4701 27.504 22.7024 27.3417 22.9776C27.1795 23.2527 27.0855 23.5626 27.0675 23.8815C27.0495 24.2004 27.108 24.519 27.2382 24.8106C27.3684 25.1023 27.5665 25.3585 27.816 25.558L27.06 26.562C26.3876 27.4174 26.0152 28.4701 26 29.558V32.002H27.63C28.0216 32.002 28.402 31.8713 28.7109 31.6308C29.0199 31.3903 29.2399 31.0536 29.336 30.674L29.998 28.002V32.002H31.998V29.582C31.9827 28.4885 31.6073 27.4306 30.93 26.572L30.18 25.58ZM16 0L0 8L16 18L32 8L16 0Z" fill="white"/>
<path d="M16 20L6 13.34V16.76C6 18.58 11.88 24 16 24C20.12 24 26 18.58 26 16.76V13.34L16 20Z" fill="white"/>
</g>
<defs>
<clipPath id="clip0_14_50">
<rect width="32" height="32" fill="white"/>
</clipPath>
</defs>
</svg>
