<svg width="34" height="34" viewBox="0 0 34 34" fill="none" xmlns="http://www.w3.org/2000/svg">
<path d="M17 32C14.925 32 12.975 31.606 11.15 30.818C9.325 30.03 7.7375 28.9615 6.3875 27.6125C5.0375 26.2625 3.969 24.675 3.182 22.85C2.395 21.025 2.001 19.075 2 17C2 14.925 2.394 12.975 3.182 11.15C3.97 9.325 5.0385 7.7375 6.3875 6.3875C7.7375 5.0375 9.325 3.969 11.15 3.182C12.975 2.395 14.925 2.001 17 2C19.075 2 21.025 2.394 22.85 3.182C24.675 3.97 26.2625 5.0385 27.6125 6.3875C28.9625 7.7375 30.0315 9.325 30.8195 11.15C31.6075 12.975 32.001 14.925 32 17C32 19.075 31.606 21.025 30.818 22.85C30.03 24.675 28.9615 26.2625 27.6125 27.6125C26.2625 28.9625 24.675 30.0315 22.85 30.8195C21.025 31.6075 19.075 32.001 17 32ZM17.3 18.5L15.95 19.85C15.675 20.125 15.5375 20.475 15.5375 20.9C15.5375 21.325 15.675 21.675 15.95 21.95C16.225 22.225 16.575 22.3625 17 22.3625C17.425 22.3625 17.775 22.225 18.05 21.95L21.95 18.05C22.25 17.75 22.4 17.4 22.4 17C22.4 16.6 22.25 16.25 21.95 15.95L18.05 12.05C17.775 11.775 17.425 11.6375 17 11.6375C16.575 11.6375 16.225 11.775 15.95 12.05C15.675 12.325 15.5375 12.675 15.5375 13.1C15.5375 13.525 15.675 13.875 15.95 14.15L17.3 15.5H12.5C12.075 15.5 11.7185 15.644 11.4305 15.932C11.1425 16.22 10.999 16.576 11 17C11 17.425 11.144 17.7815 11.432 18.0695C11.72 18.3575 12.076 18.501 12.5 18.5H17.3Z" fill="white"/>
</svg>
