<svg width="30" height="30" viewBox="0 0 30 30" fill="none" xmlns="http://www.w3.org/2000/svg">
<path d="M15 2.5C21.9037 2.5 27.5 8.09625 27.5 15C27.5 20.1625 24.37 24.595 19.9038 26.5013L16.7562 18.3138C17.4959 17.9215 18.083 17.2931 18.4241 16.5286C18.7652 15.764 18.8406 14.9073 18.6384 14.0949C18.4362 13.2825 17.9679 12.5611 17.3082 12.0457C16.6485 11.5303 15.8353 11.2504 14.9981 11.2507C14.1609 11.251 13.3479 11.5315 12.6886 12.0474C12.0292 12.5633 11.5615 13.285 11.3598 14.0975C11.1582 14.91 11.2343 15.7667 11.5759 16.531C11.9175 17.2953 12.5051 17.9233 13.245 18.315L10.0975 26.5025C7.84338 25.5406 5.92158 23.9375 4.57086 21.8925C3.22013 19.8476 2.50003 17.4508 2.5 15C2.5 8.09625 8.09625 2.5 15 2.5Z" fill="black"/>
</svg>
