<svg width="32" height="33" viewBox="0 0 32 33" fill="none" xmlns="http://www.w3.org/2000/svg">
<path d="M23.188 4.23501C23.1882 3.76663 23.0022 3.31739 22.6711 2.98611C22.34 2.65483 21.8909 2.46864 21.4225 2.46851C21.1906 2.46844 20.961 2.51405 20.7467 2.60274C20.5324 2.69143 20.3377 2.82146 20.1736 2.9854C19.8423 3.3165 19.6562 3.76563 19.656 4.23401C19.656 5.20901 21.422 8.50101 21.422 8.50101C21.422 8.50101 23.188 5.21001 23.188 4.23501ZM20.578 4.23501C20.5741 4.12179 20.5929 4.00894 20.6335 3.90318C20.6741 3.79741 20.7355 3.7009 20.8142 3.61938C20.8928 3.53787 20.9871 3.47302 21.0914 3.42871C21.1956 3.3844 21.3077 3.36153 21.421 3.36146C21.5343 3.3614 21.6464 3.38413 21.7507 3.42832C21.855 3.47251 21.9494 3.53724 22.0281 3.61866C22.1069 3.70008 22.1685 3.79653 22.2092 3.90224C22.2499 4.00796 22.2689 4.12079 22.265 4.23401C22.2576 4.45269 22.1656 4.65996 22.0083 4.81209C21.851 4.96423 21.6408 5.04933 21.422 5.04946C21.2032 5.04959 20.9929 4.96474 20.8354 4.81279C20.678 4.66084 20.5857 4.45369 20.578 4.23501ZM25.281 18.995C24.721 18.995 24.184 19.042 23.691 19.118L11.1 14.476C11.3 14.296 11.412 14.096 11.412 13.886C11.4095 13.7753 11.3792 13.667 11.324 13.571L19.734 11.333C20.194 11.47 20.757 11.553 21.38 11.553C22.9 11.553 24.13 11.069 24.13 10.471C24.13 9.87101 22.9 9.38801 21.38 9.38801C19.86 9.38801 18.63 9.87301 18.63 10.471C18.63 10.541 18.65 10.608 18.684 10.673L9.89602 12.7C9.1592 12.4921 8.39657 12.3901 7.63102 12.397C5.54402 12.397 3.85102 13.064 3.85102 13.887C3.85102 14.71 5.54402 15.377 7.63102 15.377C8.20502 15.377 8.74102 15.322 9.22902 15.232L21.219 20.098C21.029 20.29 20.913 20.498 20.913 20.721C20.913 20.911 21.009 21.085 21.149 21.254L8.69502 25.915C8.53702 25.91 8.37902 25.905 8.21802 25.905C4.97802 25.905 2.34802 26.941 2.34802 28.215C2.34802 29.492 4.97802 30.528 8.21802 30.528C11.458 30.528 14.088 29.494 14.088 28.216C14.088 27.996 14.005 27.784 13.858 27.583L24.124 22.369C24.494 22.409 24.877 22.434 25.279 22.434C27.692 22.434 29.649 21.664 29.649 20.711C29.649 19.767 27.692 18.995 25.279 18.995H25.281Z" fill="white"/>
</svg>
